<svg xmlns="http://www.w3.org/2000/svg" viewBox="0 0 800 600">
  <defs>
    <linearGradient id="bg" x1="0" y1="0" x2="1" y2="1">
      <stop offset="0" stop-color="#0d0d14"/>
      <stop offset="1" stop-color="#081018"/>
    </linearGradient>
    <linearGradient id="ac" x1="0" y1="0" x2="1" y2="0">
      <stop offset="0" stop-color="#ff004f"/>
      <stop offset="1" stop-color="#ff7a45"/>
    </linearGradient>
  </defs>
  <rect width="800" height="600" fill="url(#bg)"/>
  <!-- dashboard -->
  <rect x="150" y="110" width="500" height="330" rx="16" fill="#12121c" stroke="url(#ac)" stroke-width="3"/>
  <rect x="150" y="110" width="130" height="330" rx="16" fill="#171724"/>
  <rect x="175" y="150" width="80" height="12" rx="6" fill="url(#ac)"/>
  <rect x="175" y="185" width="80" height="12" rx="6" fill="#2e2e3e"/>
  <rect x="175" y="220" width="80" height="12" rx="6" fill="#2e2e3e"/>
  <rect x="175" y="255" width="80" height="12" rx="6" fill="#2e2e3e"/>
  <!-- table rows with avatars -->
  <g>
    <circle cx="330" cy="175" r="16" fill="#2e2e3e"/><rect x="360" y="167" width="150" height="14" rx="7" fill="#2e2e3e"/><rect x="530" y="167" width="60" height="14" rx="7" fill="url(#ac)"/>
    <circle cx="330" cy="235" r="16" fill="#2e2e3e"/><rect x="360" y="227" width="180" height="14" rx="7" fill="#2e2e3e"/><rect x="560" y="227" width="30" height="14" rx="7" fill="#ff7a45"/>
    <circle cx="330" cy="295" r="16" fill="#2e2e3e"/><rect x="360" y="287" width="130" height="14" rx="7" fill="#2e2e3e"/><rect x="510" y="287" width="80" height="14" rx="7" fill="url(#ac)"/>
  </g>
  <!-- graduation cap -->
  <g transform="translate(400,375)" stroke="#ff7a45" stroke-width="5" fill="none" stroke-linecap="round" stroke-linejoin="round">
    <path d="M -60 -10 L 0 -35 L 60 -10 L 0 15 Z"/>
    <path d="M -32 2 V 25 Q 0 42 32 25 V 2"/>
    <line x1="60" y1="-10" x2="60" y2="20"/>
  </g>
  <text x="400" y="500" font-family="Segoe UI, Arial, sans-serif" font-size="26" font-weight="700" fill="#ffffff" text-anchor="middle">STUDENT MANAGEMENT SYSTEM</text>
  <text x="400" y="536" font-family="Segoe UI, Arial, sans-serif" font-size="18" fill="#9aa0a6" text-anchor="middle">TypeScript · Next.js · Full-Stack CRUD</text>
</svg>
